<svg id="Layer_1" data-name="Layer 1" xmlns="http://www.w3.org/2000/svg" xmlns:xlink="http://www.w3.org/1999/xlink" viewBox="0 0 751.23 739.54"><defs><style>.cls-1,.cls-2{fill:none;}.cls-2{clip-rule:evenodd;}.cls-3{clip-path:url(#clip-path);}.cls-4{clip-path:url(#clip-path-2);}.cls-5{isolation:isolate;}.cls-6{clip-path:url(#clip-path-3);}.cls-7{clip-path:url(#clip-path-4);}.cls-8{fill:#374a68;}.cls-9{clip-path:url(#clip-path-6);}.cls-10{clip-path:url(#clip-path-7);}</style><clipPath id="clip-path" transform="translate(4.55 4.21)"><rect class="cls-1" x="0.45" y="0.79" width="741.23" height="729.53"/></clipPath><clipPath id="clip-path-2" transform="translate(4.55 4.21)"><rect class="cls-1" x="-1" y="-1" width="743" height="732"/></clipPath><clipPath id="clip-path-3" transform="translate(4.55 4.21)"><rect class="cls-1" width="742" height="731"/></clipPath><clipPath id="clip-path-4" transform="translate(4.55 4.21)"><path class="cls-2" d="M.45,367.54v-2C.45,167,154.37.79,372.12.79S741.68,165,741.68,363.5v2c0,198.54-153.92,364.81-371.58,364.81S.45,566.07.45,367.54m610.61,0v-2c0-137-100.22-250.88-241-250.88s-239,111.83-239,248.86v2c0,137,100.22,250.88,241.05,250.88S611.06,504.57,611.06,367.54"/></clipPath><clipPath id="clip-path-6" transform="translate(4.55 4.21)"><polygon class="cls-2" points="372.71 431.28 255.52 633.18 489.9 633.18 372.71 431.28"/></clipPath><clipPath id="clip-path-7" transform="translate(4.55 4.21)"><rect class="cls-1" x="2" y="8" width="743" height="732"/></clipPath></defs><title>Scope_Logo</title><g class="cls-3"><g class="cls-4"><g class="cls-5"><g class="cls-6"><g class="cls-7"><g class="cls-6"><rect class="cls-8" width="751.23" height="739.54"/></g></g></g></g></g></g><g class="cls-9"><g class="cls-10"><rect class="cls-8" x="255.07" y="430.49" width="244.38" height="211.9"/></g></g></svg>